<?xml version="1.0" encoding="UTF-8"?>
<svg width="400" height="300" xmlns="http://www.w3.org/2000/svg">
  <!-- Carpet court - typically green or burgundy indoors -->
  <rect width="400" height="300" fill="#5d4037" />
  
  <!-- Carpet texture -->
  <pattern id="carpet" patternUnits="userSpaceOnUse" width="8" height="8" patternTransform="rotate(0)">
    <rect width="8" height="8" fill="#6d4c41" opacity="0.4" />
    <rect width="4" height="4" fill="#795548" opacity="0.2" />
    <rect x="4" y="4" width="4" height="4" fill="#795548" opacity="0.2" />
  </pattern>
  
  <rect width="400" height="300" fill="url(#carpet)" />
  
  <!-- Court outline -->
  <rect x="20" y="20" width="360" height="260" stroke="white" stroke-width="2" fill="none" />
  
  <!-- Center line -->
  <line x1="200" y1="20" x2="200" y2="280" stroke="white" stroke-width="1" />
  
  <!-- Service lines -->
  <line x1="20" y1="100" x2="380" y2="100" stroke="white" stroke-width="1" />
  <line x1="20" y1="200" x2="380" y2="200" stroke="white" stroke-width="1" />
  
  <!-- Center service line -->
  <line x1="200" y1="100" x2="200" y2="200" stroke="white" stroke-width="1" />
  
  <!-- Net line -->
  <line x1="20" y1="150" x2="380" y2="150" stroke="white" stroke-width="2" />
  
  <!-- Net posts -->
  <circle cx="20" cy="150" r="3" fill="white" />
  <circle cx="380" cy="150" r="3" fill="white" />
  
  <!-- Indoor ceiling elements -->
  <rect x="50" y="10" width="300" height="2" fill="#9e9e9e" />
  <rect x="50" y="10" width="2" height="10" fill="#9e9e9e" />
  <rect x="150" y="10" width="2" height="10" fill="#9e9e9e" />
  <rect x="250" y="10" width="2" height="10" fill="#9e9e9e" />
  <rect x="350" y="10" width="2" height="10" fill="#9e9e9e" />
  
  <!-- No text -->
</svg>
