<svg width="100" height="100" viewBox="0 0 100 100" fill="none" xmlns="http://www.w3.org/2000/svg">
  <circle cx="50" cy="50" r="45" fill="#BFDE42"/>
  <path d="M50 5C25.1 5 5 25.1 5 50C5 74.9 25.1 95 50 95C74.9 95 95 74.9 95 50C95 25.1 74.9 5 50 5ZM80.6 80.6C71 90.2 60 95 50 95C40 95 29 90.2 19.4 80.6C9.8 71 5 60 5 50C5 40 9.8 29 19.4 19.4C29 9.8 40 5 50 5C60 5 71 9.8 80.6 19.4C90.2 29 95 40 95 50C95 60 90.2 71 80.6 80.6Z" fill="#AEC93B"/>
  <path d="M19.4 19.4C29 9.8 40 5 50 5C60 5 71 9.8 80.6 19.4C90.2 29 95 40 95 50C95 60 90.2 71 80.6 80.6" stroke="#FFFFFF" stroke-width="3"/>
  <path d="M80.6 19.4C71 9.8 60 5 50 5C40 5 29 9.8 19.4 19.4C9.8 29 5 40 5 50C5 60 9.8 71 19.4 80.6" stroke="#FFFFFF" stroke-width="3"/>
</svg>
